<svg width="111" height="9" viewBox="0 0 111 9" fill="none" xmlns="http://www.w3.org/2000/svg">
<path fill-rule="evenodd" clip-rule="evenodd" d="M26.3438 4.41495C26.3438 1.95831 28.3535 -2.46712e-06 32.1369 -2.79787e-06C35.9215 -3.12873e-06 37.9522 1.95831 37.9522 4.41494C37.9522 6.90657 36.0378 8.89264 32.159 8.89264C28.2791 8.89264 26.3438 6.90657 26.3438 4.41495ZM30.1318 4.36427C30.1062 5.93888 30.7133 7.52315 32.095 7.54848C33.5175 7.57503 34.1292 5.97508 34.156 4.43787C34.1839 2.80775 33.5 1.35983 32.2055 1.3357C30.9111 1.31278 30.1597 2.73415 30.1318 4.36427ZM50.4191 1.47363L50.418 0.177732L57.9534 0.178938L57.9534 1.47362L56.0762 1.47362L56.0762 7.32083L57.8161 7.32083C59.4281 7.32083 60.4853 6.21558 60.4853 4.71698L61.7286 4.71698L61.7286 8.63241L50.418 8.63362L50.418 7.32324L52.3172 7.32324L52.3149 1.47363L50.4191 1.47363ZM2.003 1.4773L5.80269 8.64088L10.2037 8.6433L13.9394 1.47609L15.8119 1.47729L15.8119 0.177785L10.1793 0.177786L10.1793 1.47609L11.8064 1.47609L9.08599 6.69464L6.32956 1.47729L8.30558 1.47609L8.30558 0.177786L0.133976 0.177786L0.132813 1.4773L2.003 1.4773ZM74.5848 1.47726L78.3857 8.64084L82.7867 8.64326L86.5212 1.47605L88.3937 1.47726L88.3937 0.177746L82.7622 0.177747L82.7622 1.47605L84.3882 1.47605L81.669 6.6946L78.9114 1.47726L80.8886 1.47605L80.8886 0.177747L72.717 0.177748L72.7146 1.47726L74.5848 1.47726ZM98.9453 4.41496C98.9453 1.95832 100.955 -2.46712e-06 104.738 -2.79787e-06C108.523 -3.12872e-06 110.554 1.95831 110.554 4.41496C110.554 6.9066 108.639 8.89267 104.761 8.89267C100.881 8.89267 98.9453 6.9066 98.9453 4.41496ZM102.733 4.36428C102.708 5.9389 103.315 7.52317 104.697 7.54851C106.12 7.57506 106.732 5.9751 106.756 4.43789C106.784 2.80776 106.102 1.35984 104.807 1.33571C103.513 1.31278 102.761 2.73416 102.733 4.36428Z" fill="black"/>
</svg>
